<?xml version="1.0" encoding="UTF-8"?>
<svg id="Layer_1" xmlns="http://www.w3.org/2000/svg" width="135" height="49.2" version="1.1" viewBox="0 0 135 49.2">
  <!-- Generator: Adobe Illustrator 29.6.1, SVG Export Plug-In . SVG Version: 2.1.1 Build 9)  -->
  <defs>
    <style>
      .st0 {
        fill: #606060;
      }
    </style>
  </defs>
  <g>
    <g>
      <path d="M6.7,24.2c-1.3,0-2.3-.2-3-.6-.8-.4-1.3-1-1.6-1.8-.3-.8-.5-1.7-.5-2.8v-4.4c0-1.1.2-2.1.5-2.8s.9-1.4,1.6-1.8c.8-.4,1.8-.6,3-.6s2.1.2,2.8.5,1.3.8,1.6,1.5.5,1.5.5,2.5v1.2h-3.6v-1.3c0-.5,0-.9-.1-1.2,0-.3-.3-.5-.4-.6-.2-.1-.5-.2-.8-.2s-.6,0-.8.3c-.2.2-.4.4-.4.8,0,.4-.1.8-.1,1.5v5.3c0,.9.1,1.6.3,1.9.3.3.6.5,1.1.5s.6,0,.9-.3c.2-.1.3-.4.4-.6,0-.3.1-.6.1-1.1v-1.5h3.6v1.4c0,.9-.2,1.8-.5,2.5-.3.7-.9,1.2-1.6,1.5-.8.3-1.7.5-2.8.5h.1Z"/>
      <path d="M19.1,24.2c-1.2,0-2.1-.2-2.9-.6-.8-.4-1.3-.9-1.7-1.7-.4-.8-.6-1.6-.6-2.7v-4.9c0-1.1.2-2,.6-2.7.4-.8.9-1.3,1.7-1.7.8-.4,1.7-.6,2.9-.6s2.1.2,2.9.6c.8.4,1.3.9,1.7,1.7.4.8.6,1.6.6,2.7v4.9c0,1.1-.2,2-.6,2.7-.4.8-.9,1.3-1.7,1.7-.8.4-1.8.6-2.9.6ZM19.1,21.8c.4,0,.8-.1.9-.3s.3-.5.4-.9c0-.4,0-.8,0-1.3v-5.3c0-.4,0-.9,0-1.2,0-.4-.2-.6-.4-.9s-.5-.3-.9-.3-.8.1-.9.3c-.2.3-.3.5-.4.9,0,.4-.1.8-.1,1.2v5.3c0,.4,0,.9.1,1.3,0,.4.2.7.4.9.2.2.5.3.9.3Z"/>
      <path d="M26.9,24v-14.4h3.7v1.3c.6-.5,1.1-.9,1.8-1.1.6-.3,1.3-.4,2-.4s1.2.1,1.6.4c.5.3.8.8,1.1,1.3.6-.6,1.3-1.1,2-1.4.7-.3,1.4-.4,2.1-.4s1.1.1,1.5.4c.4.3.8.6,1.1,1.1.3.5.4,1.1.4,1.9v11.2h-3.7v-10.9c0-.6-.1-.9-.3-1.1s-.5-.3-.9-.3-.6,0-1,.3c-.4.1-.7.4-1,.6v11.6h-3.6v-10.9c0-.6-.1-.9-.3-1.1s-.5-.3-.9-.3-.6,0-1,.3c-.4.1-.7.4-1,.6v11.6h-3.7.1Z"/>
      <path d="M47,28.7V9.6h3.8v1.1c.4-.4,1-.7,1.5-.9.6-.3,1.1-.4,1.8-.4s1.3.1,1.8.4.8.7,1.1,1.2c.3.5.4,1,.6,1.6.1.6.1,1.1.1,1.6v4.9c0,.9-.1,1.8-.4,2.6-.3.8-.6,1.4-1.2,1.9-.6.4-1.3.7-2.2.7s-1.1-.1-1.6-.4-1-.6-1.5-.9v5.8h-3.8,0ZM52.5,21.8c.4,0,.7-.1.9-.4.2-.3.3-.6.4-.9s.1-.8.1-1.3v-5.2c0-.4,0-.8-.1-1.2,0-.4-.2-.6-.4-.9-.2-.2-.5-.3-.9-.3s-.6,0-.9.2c-.3.1-.6.3-.8.4v9.1l.8.4c.3.1.6.1.9.1h0Z"/>
      <path d="M60.4,24v-14.4h3.8v2.2c.6-.8,1.1-1.5,1.7-1.8s1.2-.6,1.8-.6.2,0,.3,0h.3v3.5c-.3,0-.4-.1-.8-.2-.3,0-.6,0-.8,0-.5,0-.9.1-1.4.3s-.8.6-1.2,1.1v9.9h-3.8Z"/>
      <path d="M75,24.2c-1.2,0-2.1-.2-2.9-.6-.8-.4-1.3-.9-1.7-1.7-.4-.8-.6-1.6-.6-2.7v-4.9c0-1.1.2-2,.6-2.7.4-.8.9-1.3,1.7-1.7.8-.4,1.7-.6,2.9-.6s2.1.2,2.9.6c.8.4,1.3.9,1.7,1.7.4.8.6,1.6.6,2.7v4.9c0,1.1-.2,2-.6,2.7-.4.8-.9,1.3-1.7,1.7-.8.4-1.8.6-2.9.6ZM75,21.8c.4,0,.8-.1.9-.3s.3-.5.4-.9c0-.4,0-.8,0-1.3v-5.3c0-.4,0-.9,0-1.2,0-.4-.2-.6-.4-.9s-.5-.3-.9-.3-.8.1-.9.3c-.2.3-.3.5-.4.9,0,.4-.1.8-.1,1.2v5.3c0,.4,0,.9.1,1.3,0,.4.2.7.4.9.2.2.5.3.9.3Z"/>
      <path d="M83,24V3.8h5.4c1.8,0,3.3.3,4.3.7s1.8,1.1,2.2,2.1c.4.9.6,2.1.6,3.5v7.4c0,1.5-.2,2.7-.6,3.7-.4.9-1.1,1.7-2.2,2.1-1,.4-2.4.7-4.2.7h-5.5ZM87.2,21.4h1.3c.9,0,1.6-.1,2-.4.4-.3.6-.8.8-1.3,0-.6.1-1.3.1-2.1v-7.7c0-.8,0-1.5-.2-2s-.4-.9-.8-1.1c-.4-.3-1.1-.4-2-.4h-1.2v15h0Z"/>
      <path d="M98.6,24V3.8h4.2v17.6h5.5v2.5h-9.7Z"/>
      <path d="M116.1,24.2c-1.4,0-2.5-.3-3.4-.7-.9-.5-1.6-1.1-2.1-2.1s-.8-2-.8-3.3l3.5-.6c0,.8.1,1.5.3,2.1.2.6.4,1.1.8,1.4s.8.5,1.5.5,1.1-.2,1.5-.5c.3-.4.4-.8.4-1.4,0-.9-.3-1.6-.7-2.1-.4-.6-1.1-1.1-1.8-1.7l-2.8-2.3c-.8-.6-1.5-1.3-1.9-2.1-.5-.8-.7-1.7-.7-2.8,0-1.6.5-2.8,1.6-3.7,1.1-.9,2.5-1.3,4.3-1.3s2,.1,2.7.4c.7.3,1.3.7,1.7,1.2s.8,1.1.9,1.8c.2.6.3,1.3.4,2.1l-3.5.6c0-.6-.1-1.2-.3-1.7s-.3-.9-.6-1.2-.8-.4-1.3-.4-1.1.2-1.4.5c-.3.4-.5.8-.5,1.3s.2,1.3.5,1.7.8.9,1.4,1.4l2.8,2.2c.9.7,1.7,1.5,2.4,2.5.6.9,1,2.1,1,3.4s-.3,1.8-.7,2.6c-.5.8-1.1,1.3-2,1.8s-1.8.6-3,.6h-.3Z"/>
    </g>
    <g>
      <path d="M125,7.4V2.3h-1v-1h3.6v1h-1v5.1h-1.6Z"/>
      <path d="M128.1,7.4V1.3h1.8l.8,3.6.8-3.6h1.6v6.1c.1,0-.9,0-.9,0V3.3c-.1,0-.9,4.1-.9,4.1h-.9l-.8-4.1v4.1h-1.3Z"/>
    </g>
  </g>
  <g>
    <path class="st0" d="M1.7,43.3v-.7h3v.7H1.7Z"/>
    <path class="st0" d="M10.2,46.1c-.6,0-1.2-.1-1.7-.3-.5-.2-1-.5-1.3-.9-.4-.4-.7-.8-.9-1.3-.2-.5-.3-1-.3-1.6s.1-1.1.3-1.6c.2-.5.5-.9.9-1.3.4-.4.8-.6,1.3-.8.5-.2,1.1-.3,1.7-.3s1.1,0,1.6.3c.5.2.9.5,1.3.9l-.5.5c-.3-.3-.7-.6-1.1-.7-.4-.1-.8-.2-1.3-.2s-.9,0-1.3.2c-.4.2-.8.4-1.1.7-.3.3-.5.7-.7,1-.2.4-.3.8-.3,1.3s0,.9.3,1.3c.2.4.4.7.7,1,.3.3.7.5,1.1.7.4.2.9.2,1.3.2s.9,0,1.3-.2c.4-.2.8-.4,1.1-.7l.5.5c-.4.4-.8.7-1.3.9-.5.2-1.1.3-1.6.3Z"/>
    <path class="st0" d="M16.9,46.1c-.6,0-1.1-.1-1.6-.4s-.8-.6-1.1-1.1c-.3-.5-.4-1-.4-1.6s.1-1.1.4-1.6c.3-.5.6-.8,1.1-1.1s1-.4,1.6-.4,1.1.1,1.6.4c.5.3.8.6,1.1,1.1.3.5.4,1,.4,1.6s-.1,1.1-.4,1.6c-.3.5-.6.8-1.1,1.1-.5.3-1,.4-1.6.4ZM16.9,45.4c.4,0,.8,0,1.2-.3s.6-.5.8-.8c.2-.4.3-.8.3-1.2s0-.9-.3-1.2c-.2-.3-.5-.6-.8-.8s-.7-.3-1.1-.3-.8,0-1.1.3-.6.5-.8.8c-.2.4-.3.8-.3,1.2s0,.9.3,1.2c.2.4.5.6.8.8s.7.3,1.1.3Z"/>
    <path class="st0" d="M21.6,46.1v-6h.8v1.6-.3c0-.4.4-.8.8-1,.4-.2.9-.4,1.4-.4s1.1.1,1.5.4c.4.3.7.7.8,1.3h-.3c.2-.6.5-1,.9-1.3s1-.5,1.6-.5.9,0,1.3.3c.4.2.6.5.8.9.2.4.3.9.3,1.4v3.5h-.8v-3.4c0-.6-.2-1.1-.5-1.4-.3-.3-.7-.5-1.3-.5s-.8,0-1.1.3c-.3.2-.5.4-.7.7-.2.3-.2.7-.2,1.2v3.2h-.8v-3.4c0-.6-.2-1.1-.5-1.4-.3-.3-.7-.5-1.3-.5s-.8,0-1.1.3c-.3.2-.5.4-.7.7-.2.3-.2.7-.2,1.2v3.2h-.8Z"/>
    <path class="st0" d="M33.7,48.3v-8.2h.8v3c0,0,0,1.2,0,1.2v4h-.8ZM36.8,46.1c-.5,0-1-.1-1.4-.4-.4-.2-.8-.6-1-1-.2-.5-.4-1-.4-1.7s.1-1.2.4-1.7c.2-.5.6-.8,1-1,.4-.2.9-.4,1.4-.4s1.1.1,1.5.4.8.6,1.1,1.1c.3.5.4,1,.4,1.6s-.1,1.1-.4,1.6c-.3.5-.6.8-1.1,1.1s-1,.4-1.5.4ZM36.7,45.4c.4,0,.8,0,1.1-.3.3-.2.6-.5.8-.8.2-.4.3-.8.3-1.2s0-.9-.3-1.2c-.2-.4-.5-.6-.8-.8-.3-.2-.7-.3-1.1-.3s-.8,0-1.1.3c-.3.2-.6.5-.8.8-.2.3-.3.8-.3,1.2s0,.9.3,1.2c.2.4.5.6.8.8.3.2.7.3,1.1.3Z"/>
    <path class="st0" d="M41.4,46.1v-6h.8v1.6-.3c0-.5.4-.8.8-1,.4-.2.9-.4,1.5-.4v.8s0,0,0,0,0,0,0,0c-.6,0-1.1.2-1.5.6-.4.4-.5.9-.5,1.6v3.1h-.8Z"/>
    <path class="st0" d="M48.3,46.1c-.6,0-1.1-.1-1.6-.4s-.8-.6-1.1-1.1c-.3-.5-.4-1-.4-1.6s.1-1.1.4-1.6c.3-.5.6-.8,1.1-1.1s1-.4,1.6-.4,1.1.1,1.6.4c.5.3.8.6,1.1,1.1.3.5.4,1,.4,1.6s-.1,1.1-.4,1.6c-.3.5-.6.8-1.1,1.1-.5.3-1,.4-1.6.4ZM48.3,45.4c.4,0,.8,0,1.2-.3s.6-.5.8-.8c.2-.4.3-.8.3-1.2s0-.9-.3-1.2c-.2-.3-.5-.6-.8-.8s-.7-.3-1.1-.3-.8,0-1.1.3-.6.5-.8.8c-.2.4-.3.8-.3,1.2s0,.9.3,1.2c.2.4.5.6.8.8s.7.3,1.1.3Z"/>
    <path class="st0" d="M57.7,46.1v-7.3h-2.8v-.7h6.5v.7h-2.8v7.3h-.8Z"/>
    <path class="st0" d="M64.5,46.1c-.6,0-1.2-.1-1.6-.4-.5-.3-.8-.6-1.1-1.1-.3-.5-.4-1-.4-1.6s.1-1.1.4-1.6c.3-.5.6-.8,1.1-1.1.4-.3.9-.4,1.5-.4s1.1.1,1.5.4c.4.3.8.6,1,1.1.3.5.4,1,.4,1.6s0,0,0,.1c0,0,0,0,0,.1h-5.2v-.6h4.8l-.3.2c0-.4,0-.8-.3-1.2s-.4-.6-.8-.8c-.3-.2-.7-.3-1.1-.3s-.8,0-1.1.3c-.3.2-.6.5-.8.8s-.3.7-.3,1.2h0c0,.6.1,1,.3,1.3s.5.6.8.8c.4.2.8.3,1.2.3s.7,0,1-.2c.3-.1.6-.3.8-.6l.5.5c-.3.3-.6.6-1,.7-.4.2-.8.3-1.3.3Z"/>
    <path class="st0" d="M71.3,46.1c-.6,0-1.1-.1-1.6-.4s-.8-.6-1.1-1.1c-.3-.5-.4-1-.4-1.6s.1-1.1.4-1.6c.3-.5.6-.8,1.1-1.1s1-.4,1.6-.4,1,0,1.4.3c.4.2.7.5,1,.9l-.6.4c-.2-.3-.5-.5-.8-.7s-.6-.2-1-.2-.8,0-1.2.3c-.3.2-.6.5-.8.8-.2.4-.3.8-.3,1.2s0,.9.3,1.2c.2.4.5.6.8.8.3.2.7.3,1.2.3s.7,0,1-.2.6-.4.8-.7l.6.4c-.2.4-.6.7-1,.9-.4.2-.9.3-1.4.3Z"/>
    <path class="st0" d="M75.2,46.1v-8.5h.8v4.1l-.2-.3c.2-.4.5-.8.9-1,.4-.2.9-.4,1.5-.4s.9,0,1.3.3.7.5.9.9c.2.4.3.9.3,1.4v3.5h-.8v-3.4c0-.6-.2-1.1-.5-1.4-.3-.3-.8-.5-1.3-.5s-.8,0-1.1.3c-.3.2-.6.4-.7.7-.2.3-.3.7-.3,1.2v3.2h-.8Z"/>
    <path class="st0" d="M82.9,46.1v-6h.8v1.6-.3c0-.4.4-.8.8-1,.4-.2.9-.4,1.5-.4s.9,0,1.3.3.7.5.9.9c.2.4.3.9.3,1.4v3.5h-.8v-3.4c0-.6-.2-1.1-.5-1.4-.3-.3-.8-.5-1.3-.5s-.8,0-1.1.3c-.3.2-.6.4-.7.7-.2.3-.3.7-.3,1.2v3.2h-.8Z"/>
    <path class="st0" d="M93.1,46.1c-.6,0-1.1-.1-1.6-.4-.5-.3-.8-.6-1.1-1.1-.3-.5-.4-1-.4-1.6s.1-1.1.4-1.6c.3-.5.6-.8,1.1-1.1.5-.3,1-.4,1.6-.4s1.1.1,1.6.4c.5.3.8.6,1.1,1.1.3.5.4,1,.4,1.6s-.1,1.1-.4,1.6c-.3.5-.6.8-1.1,1.1-.5.3-1,.4-1.6.4ZM93.1,45.4c.4,0,.8,0,1.2-.3s.6-.5.8-.8c.2-.4.3-.8.3-1.2s0-.9-.3-1.2c-.2-.3-.5-.6-.8-.8s-.7-.3-1.1-.3-.8,0-1.1.3-.6.5-.8.8c-.2.4-.3.8-.3,1.2s0,.9.3,1.2c.2.4.5.6.8.8s.7.3,1.1.3Z"/>
    <path class="st0" d="M97.8,46.1v-8.5h.8v8.5h-.8Z"/>
    <path class="st0" d="M103.3,46.1c-.6,0-1.1-.1-1.6-.4-.5-.3-.8-.6-1.1-1.1-.3-.5-.4-1-.4-1.6s.1-1.1.4-1.6c.3-.5.6-.8,1.1-1.1.5-.3,1-.4,1.6-.4s1.1.1,1.6.4c.5.3.8.6,1.1,1.1.3.5.4,1,.4,1.6s-.1,1.1-.4,1.6c-.3.5-.6.8-1.1,1.1-.5.3-1,.4-1.6.4ZM103.3,45.4c.4,0,.8,0,1.2-.3s.6-.5.8-.8c.2-.4.3-.8.3-1.2s0-.9-.3-1.2c-.2-.3-.5-.6-.8-.8s-.7-.3-1.1-.3-.8,0-1.1.3-.6.5-.8.8c-.2.4-.3.8-.3,1.2s0,.9.3,1.2c.2.4.5.6.8.8s.7.3,1.1.3Z"/>
    <path class="st0" d="M110.4,45.8c-.6,0-1.1-.1-1.5-.4-.5-.2-.8-.6-1.1-1s-.4-.9-.4-1.5.1-1.1.4-1.5.6-.8,1.1-1c.5-.2,1-.4,1.5-.4s1,.1,1.4.3c.4.2.8.5,1,1,.3.4.4,1,.4,1.6s-.1,1.2-.4,1.6c-.3.4-.6.8-1,1-.4.2-.9.3-1.4.3ZM110.6,48.3c-.5,0-1.1,0-1.6-.2-.5-.2-.9-.4-1.2-.7l.4-.6c.3.3.6.5,1,.6s.9.2,1.3.2c.8,0,1.3-.2,1.7-.5.4-.4.5-.9.5-1.6v-2.5c.1,0,0-1,0-1v-1.8h.8v5.3c0,1-.3,1.8-.8,2.3s-1.3.7-2.2.7ZM110.5,45.1c.4,0,.8,0,1.2-.3s.6-.4.8-.8c.2-.3.3-.7.3-1.1s0-.8-.3-1.1c-.2-.3-.5-.6-.8-.8-.3-.2-.7-.3-1.2-.3s-.8,0-1.2.3c-.3.2-.6.4-.8.8-.2.3-.3.7-.3,1.1s0,.8.3,1.1c.2.3.5.6.8.8.3.2.7.3,1.2.3Z"/>
    <path class="st0" d="M116.2,38.8c-.2,0-.3,0-.4-.2s-.2-.3-.2-.4,0-.3.2-.4c.1-.1.3-.2.4-.2s.3,0,.4.2.2.2.2.4,0,.3-.2.4c-.1.1-.3.2-.4.2ZM115.8,46.1v-6h.8v6h-.8Z"/>
    <path class="st0" d="M121.4,46.1c-.6,0-1.2-.1-1.6-.4s-.8-.6-1.1-1.1c-.3-.5-.4-1-.4-1.6s.1-1.1.4-1.6c.3-.5.6-.8,1.1-1.1.4-.3.9-.4,1.5-.4s1.1.1,1.5.4.8.6,1,1.1c.3.5.4,1,.4,1.6s0,0,0,.1c0,0,0,0,0,.1h-5.2v-.6h4.8l-.3.2c0-.4,0-.8-.3-1.2s-.4-.6-.8-.8c-.3-.2-.7-.3-1.1-.3s-.8,0-1.1.3c-.3.2-.6.5-.8.8s-.3.7-.3,1.2h0c0,.6.1,1,.3,1.3.2.3.5.6.8.8s.8.3,1.2.3.7,0,1-.2c.3-.1.6-.3.8-.6l.5.5c-.3.3-.6.6-1,.7-.4.2-.8.3-1.3.3Z"/>
    <path class="st0" d="M127.4,46.1c-.5,0-1,0-1.4-.2s-.8-.3-1-.5l.4-.6c.2.2.6.3.9.5.4.1.8.2,1.2.2s1,0,1.2-.3c.3-.2.4-.4.4-.7s0-.4-.2-.5c-.1-.1-.3-.2-.6-.3s-.5-.1-.8-.2c-.3,0-.6,0-.8-.2-.3,0-.5-.2-.8-.3-.2-.1-.4-.3-.6-.5-.1-.2-.2-.5-.2-.8s0-.6.3-.9.5-.5.8-.6c.4-.1.8-.2,1.3-.2s.8,0,1.2.2.7.2,1,.4l-.4.7c-.3-.2-.6-.3-.9-.4-.3,0-.6-.1-.9-.1-.5,0-.9,0-1.2.3s-.4.4-.4.7,0,.4.2.5c.1.1.3.2.6.3.2,0,.5.1.8.2.3,0,.6.1.8.2.3,0,.5.2.8.3s.4.3.6.5c.1.2.2.5.2.8s0,.7-.3.9c-.2.3-.5.5-.8.6s-.8.2-1.3.2Z"/>
    <path class="st0" d="M130.9,43.3v-.7h3v.7h-3Z"/>
  </g>
</svg>