<?xml version="1.0" encoding="utf-8"?>
<!-- Generator: Adobe Illustrator 29.0.0, SVG Export Plug-In . SVG Version: 9.03 Build 54978)  -->
<svg version="1.1" id="Layer_1" xmlns="http://www.w3.org/2000/svg" xmlns:xlink="http://www.w3.org/1999/xlink" x="0px" y="0px"
	 width="32px" height="32px" viewBox="0 0 32 32" style="enable-background:new 0 0 32 32;" xml:space="preserve">
<style type="text/css">
	.st0{fill:#292524;}
	.st1{fill:#FFFFFF;}
</style>
<g>
	<rect x="0" class="st0" width="32" height="32"/>
	<g>
		<path class="st1" d="M3.8,23.2V8.9h3.6c1.2,0,2.2,0.2,2.9,0.5c0.7,0.3,1.2,0.8,1.5,1.5s0.4,1.5,0.4,2.6v5.2c0,1.1-0.1,1.9-0.4,2.6
			c-0.3,0.7-0.8,1.2-1.5,1.5c-0.7,0.3-1.7,0.5-2.9,0.5H3.8z M6.9,21h0.5c0.5,0,0.8-0.1,1-0.2c0.2-0.1,0.3-0.4,0.4-0.6
			c0.1-0.3,0.1-0.6,0.1-1.1v-6.2c0-0.4,0-0.8-0.1-1c-0.1-0.3-0.2-0.4-0.4-0.6c-0.2-0.1-0.6-0.2-1-0.2H6.9V21z"/>
		<path class="st1" d="M14.1,23.2V8.9h3.2v12.2h3.3v2.1H14.1z"/>
		<path class="st1" d="M25.6,23.4c-0.9,0-1.6-0.2-2.2-0.5c-0.6-0.3-1.1-0.8-1.4-1.5c-0.3-0.7-0.5-1.5-0.5-2.6l2.7-0.4
			c0,0.6,0.1,1.1,0.2,1.5c0.1,0.4,0.2,0.6,0.4,0.8c0.2,0.2,0.4,0.2,0.7,0.2c0.3,0,0.5-0.1,0.6-0.3c0.1-0.2,0.2-0.5,0.2-0.7
			c0-0.6-0.1-1.1-0.4-1.5c-0.3-0.4-0.7-0.8-1.1-1.2l-1.2-1.1c-0.5-0.5-1-1-1.4-1.6s-0.6-1.3-0.6-2.2c0-1.2,0.4-2.1,1.1-2.8
			c0.7-0.6,1.7-1,2.9-1c0.8,0,1.4,0.1,1.8,0.4c0.5,0.3,0.8,0.6,1.1,1c0.2,0.4,0.4,0.9,0.5,1.3c0.1,0.5,0.1,0.9,0.2,1.3l-2.7,0.3
			c0-0.4,0-0.8-0.1-1.1c0-0.3-0.1-0.6-0.3-0.7c-0.1-0.2-0.3-0.3-0.6-0.3c-0.3,0-0.5,0.1-0.6,0.4c-0.1,0.2-0.2,0.5-0.2,0.7
			c0,0.5,0.1,1,0.4,1.3c0.3,0.3,0.6,0.7,1,1.1l1.2,1c0.6,0.5,1.2,1.1,1.6,1.8c0.4,0.7,0.6,1.5,0.6,2.5c0,0.7-0.2,1.3-0.5,1.8
			s-0.7,1-1.3,1.3S26.4,23.4,25.6,23.4z"/>
	</g>
</g>
</svg>
